<mxfile host="app.diagrams.net" modified="2023-09-26T15:31:29.857Z" agent="Mozilla/5.0 (X11; Linux x86_64; rv:109.0) Gecko/20100101 Firefox/114.0" etag="pPy8tW9NVhLyV8d8KfK8" version="21.8.2" type="github">
  <diagram name="Página-1" id="-g9bSEbhVr5vA_LyVVuC">
    <mxGraphModel dx="989" dy="548" grid="1" gridSize="10" guides="1" tooltips="1" connect="1" arrows="1" fold="1" page="1" pageScale="1" pageWidth="827" pageHeight="1169" math="0" shadow="0">
      <root>
        <mxCell id="0" />
        <mxCell id="1" parent="0" />
        <mxCell id="qWGIm6JoiP6WV_-AvH_R-6" style="edgeStyle=orthogonalEdgeStyle;rounded=0;orthogonalLoop=1;jettySize=auto;html=1;endArrow=none;endFill=0;" edge="1" parent="1" source="qWGIm6JoiP6WV_-AvH_R-1" target="qWGIm6JoiP6WV_-AvH_R-2">
          <mxGeometry relative="1" as="geometry" />
        </mxCell>
        <mxCell id="qWGIm6JoiP6WV_-AvH_R-1" value="FÁBRICAS" style="rounded=0;whiteSpace=wrap;html=1;fillColor=#dae8fc;strokeColor=#6c8ebf;" vertex="1" parent="1">
          <mxGeometry x="210" y="140" width="120" height="60" as="geometry" />
        </mxCell>
        <mxCell id="qWGIm6JoiP6WV_-AvH_R-7" style="edgeStyle=orthogonalEdgeStyle;rounded=0;orthogonalLoop=1;jettySize=auto;html=1;entryX=0.5;entryY=0;entryDx=0;entryDy=0;endArrow=none;endFill=0;" edge="1" parent="1" source="qWGIm6JoiP6WV_-AvH_R-2" target="qWGIm6JoiP6WV_-AvH_R-3">
          <mxGeometry relative="1" as="geometry" />
        </mxCell>
        <mxCell id="qWGIm6JoiP6WV_-AvH_R-2" value="distribuyen" style="rhombus;whiteSpace=wrap;html=1;fillColor=#f8cecc;strokeColor=#b85450;" vertex="1" parent="1">
          <mxGeometry x="230" y="240" width="80" height="80" as="geometry" />
        </mxCell>
        <mxCell id="qWGIm6JoiP6WV_-AvH_R-8" style="edgeStyle=orthogonalEdgeStyle;rounded=0;orthogonalLoop=1;jettySize=auto;html=1;entryX=0;entryY=0.5;entryDx=0;entryDy=0;endArrow=none;endFill=0;" edge="1" parent="1" source="qWGIm6JoiP6WV_-AvH_R-3" target="qWGIm6JoiP6WV_-AvH_R-4">
          <mxGeometry relative="1" as="geometry" />
        </mxCell>
        <mxCell id="qWGIm6JoiP6WV_-AvH_R-3" value="ARTÍCULOS" style="rounded=0;whiteSpace=wrap;html=1;fillColor=#dae8fc;strokeColor=#6c8ebf;" vertex="1" parent="1">
          <mxGeometry x="210" y="370" width="120" height="60" as="geometry" />
        </mxCell>
        <mxCell id="qWGIm6JoiP6WV_-AvH_R-4" value="pedidos por" style="rhombus;whiteSpace=wrap;html=1;fillColor=#f8cecc;strokeColor=#b85450;" vertex="1" parent="1">
          <mxGeometry x="380" y="360" width="80" height="80" as="geometry" />
        </mxCell>
        <mxCell id="qWGIm6JoiP6WV_-AvH_R-29" style="edgeStyle=orthogonalEdgeStyle;rounded=0;orthogonalLoop=1;jettySize=auto;html=1;endArrow=none;endFill=0;" edge="1" parent="1" source="qWGIm6JoiP6WV_-AvH_R-12" target="qWGIm6JoiP6WV_-AvH_R-16">
          <mxGeometry relative="1" as="geometry" />
        </mxCell>
        <mxCell id="qWGIm6JoiP6WV_-AvH_R-30" style="edgeStyle=orthogonalEdgeStyle;rounded=0;orthogonalLoop=1;jettySize=auto;html=1;" edge="1" parent="1" source="qWGIm6JoiP6WV_-AvH_R-12" target="qWGIm6JoiP6WV_-AvH_R-24">
          <mxGeometry relative="1" as="geometry" />
        </mxCell>
        <mxCell id="qWGIm6JoiP6WV_-AvH_R-12" value="CLIENTES" style="rounded=0;whiteSpace=wrap;html=1;fillColor=#dae8fc;strokeColor=#6c8ebf;" vertex="1" parent="1">
          <mxGeometry x="714" y="380" width="120" height="60" as="geometry" />
        </mxCell>
        <mxCell id="qWGIm6JoiP6WV_-AvH_R-16" value="&lt;u&gt;nº&lt;/u&gt;" style="ellipse;whiteSpace=wrap;html=1;fillColor=#fff2cc;strokeColor=#d6b656;" vertex="1" parent="1">
          <mxGeometry x="580" y="460" width="56" height="30" as="geometry" />
        </mxCell>
        <mxCell id="qWGIm6JoiP6WV_-AvH_R-22" value="dirección" style="ellipse;shape=doubleEllipse;margin=3;whiteSpace=wrap;html=1;align=center;fillColor=#fff2cc;strokeColor=#d6b656;" vertex="1" parent="1">
          <mxGeometry x="644" y="455" width="80" height="35" as="geometry" />
        </mxCell>
        <mxCell id="qWGIm6JoiP6WV_-AvH_R-24" value="saldo" style="ellipse;whiteSpace=wrap;html=1;fillColor=#fff2cc;strokeColor=#d6b656;" vertex="1" parent="1">
          <mxGeometry x="734" y="457.5" width="56" height="30" as="geometry" />
        </mxCell>
        <mxCell id="qWGIm6JoiP6WV_-AvH_R-37" style="edgeStyle=orthogonalEdgeStyle;rounded=0;orthogonalLoop=1;jettySize=auto;html=1;endArrow=none;endFill=0;entryX=0.943;entryY=0.97;entryDx=0;entryDy=0;entryPerimeter=0;" edge="1" parent="1" source="qWGIm6JoiP6WV_-AvH_R-25" target="qWGIm6JoiP6WV_-AvH_R-12">
          <mxGeometry relative="1" as="geometry">
            <mxPoint x="827.9999999999998" y="450" as="targetPoint" />
            <Array as="points" />
          </mxGeometry>
        </mxCell>
        <mxCell id="qWGIm6JoiP6WV_-AvH_R-25" value="límite crédito" style="ellipse;whiteSpace=wrap;html=1;fillColor=#fff2cc;strokeColor=#d6b656;" vertex="1" parent="1">
          <mxGeometry x="800" y="455" width="56" height="37.5" as="geometry" />
        </mxCell>
        <mxCell id="qWGIm6JoiP6WV_-AvH_R-26" value="descuento" style="ellipse;whiteSpace=wrap;html=1;fillColor=#fff2cc;strokeColor=#d6b656;" vertex="1" parent="1">
          <mxGeometry x="860" y="460" width="70" height="30" as="geometry" />
        </mxCell>
        <mxCell id="qWGIm6JoiP6WV_-AvH_R-31" style="edgeStyle=orthogonalEdgeStyle;rounded=0;orthogonalLoop=1;jettySize=auto;html=1;entryX=0.684;entryY=0.044;entryDx=0;entryDy=0;entryPerimeter=0;endArrow=none;endFill=0;" edge="1" parent="1" source="qWGIm6JoiP6WV_-AvH_R-12" target="qWGIm6JoiP6WV_-AvH_R-26">
          <mxGeometry relative="1" as="geometry" />
        </mxCell>
        <mxCell id="qWGIm6JoiP6WV_-AvH_R-33" style="edgeStyle=orthogonalEdgeStyle;rounded=0;orthogonalLoop=1;jettySize=auto;html=1;entryX=-0.005;entryY=0.677;entryDx=0;entryDy=0;entryPerimeter=0;endArrow=none;endFill=0;" edge="1" parent="1" source="qWGIm6JoiP6WV_-AvH_R-22" target="qWGIm6JoiP6WV_-AvH_R-12">
          <mxGeometry relative="1" as="geometry" />
        </mxCell>
        <mxCell id="qWGIm6JoiP6WV_-AvH_R-38" style="edgeStyle=orthogonalEdgeStyle;rounded=0;orthogonalLoop=1;jettySize=auto;html=1;entryX=0.009;entryY=0.338;entryDx=0;entryDy=0;entryPerimeter=0;endArrow=none;endFill=0;" edge="1" parent="1" source="qWGIm6JoiP6WV_-AvH_R-4" target="qWGIm6JoiP6WV_-AvH_R-12">
          <mxGeometry relative="1" as="geometry" />
        </mxCell>
      </root>
    </mxGraphModel>
  </diagram>
</mxfile>
